<?xml version="1.0" standalone="no"?>
<!DOCTYPE svg PUBLIC "-//W3C//DTD SVG 20010904//EN"
 "http://www.w3.org/TR/2001/REC-SVG-20010904/DTD/svg10.dtd">
<svg version="1.0" xmlns="http://www.w3.org/2000/svg"
 width="1346.000000pt" height="1814.000000pt" viewBox="0 0 1346.000000 1814.000000"
 preserveAspectRatio="xMidYMid meet">

<g transform="translate(0.000000,1814.000000) scale(0.100000,-0.100000)"
fill="#000000" stroke="none">
<path d="M0 9070 l0 -9070 6730 0 6730 0 0 9070 0 9070 -6730 0 -6730 0 0
-9070z m2360 8411 c0 -148 -5 -315 -10 -372 -71 -696 -594 -1260 -1280 -1380
-91 -16 -178 -22 -419 -26 l-304 -6 6 259 c6 301 24 428 86 614 221 660 786
1104 1491 1173 19 2 124 5 233 5 l197 2 0 -269z m10740 -2508 c0 -1751 -4
-2839 -10 -2943 -89 -1450 -606 -2792 -1512 -3921 -278 -347 -631 -706 -980
-996 -307 -256 -755 -560 -1103 -749 -99 -53 -99 -59 -4 62 105 134 187 313
226 495 17 78 18 164 18 1234 0 1275 3 1210 -67 1418 -153 457 -560 822 -1075
963 -200 54 -218 56 -705 61 l-458 5 0 266 0 267 93 23 c247 61 491 232 646
453 120 171 201 409 201 597 l0 62 -221 0 -221 0 22 -32 c82 -123 103 -293 50
-398 -13 -25 -71 -95 -129 -156 -58 -60 -126 -134 -150 -163 -51 -62 -249
-223 -366 -297 -91 -59 -241 -135 -430 -219 -71 -32 -146 -71 -165 -87 -19
-15 -63 -48 -98 -73 -34 -25 -77 -66 -94 -90 -29 -41 -35 -45 -75 -45 -39 0
-49 -6 -120 -71 -98 -89 -231 -159 -303 -159 -41 0 -53 5 -79 30 -65 66 -67
195 -4 270 15 19 74 55 147 92 152 76 176 94 221 168 47 77 88 100 182 100 76
0 124 18 188 70 66 53 586 552 581 557 -3 3 -38 20 -78 37 -143 62 -243 151
-313 276 -22 40 -48 78 -57 84 -13 8 -61 3 -188 -18 -141 -24 -176 -27 -207
-18 -26 8 -58 8 -103 2 -36 -5 -114 -10 -173 -10 -153 0 -342 -48 -430 -108
-89 -62 -97 -74 -97 -146 0 -58 -3 -69 -30 -99 -18 -21 -52 -42 -88 -56 -64
-23 -166 -85 -196 -120 -11 -12 -36 -54 -55 -93 -26 -52 -47 -80 -76 -100 -47
-32 -165 -78 -201 -78 -37 0 -74 42 -74 83 0 67 29 128 151 313 121 186 124
191 162 323 21 74 47 152 58 172 10 21 19 43 19 49 0 6 -27 10 -65 10 l-65 0
-2 608 -3 607 -30 3 c-103 8 -114 12 -136 48 -21 34 -21 36 -3 49 11 8 54 29
97 47 l77 32 0 1213 0 1213 1373 0 c1490 0 1469 -1 1647 56 234 74 464 243
599 443 115 169 201 430 201 612 l0 39 -2630 0 -2630 0 0 -2489 0 -2488 -69
-7 c-160 -16 -361 -91 -513 -193 -142 -94 -300 -276 -382 -441 -60 -120 -116
-342 -116 -464 l0 -38 540 0 540 0 0 -1800 0 -1800 718 2 717 3 3 1798 2 1797
314 0 315 0 3 -532 c4 -519 5 -535 27 -613 100 -352 371 -624 746 -748 180
-60 174 -60 883 -64 l652 -4 -2 -977 -3 -977 -27 -57 c-119 -255 -474 -320
-685 -125 -57 52 -87 99 -107 167 -14 46 -16 130 -16 597 l0 543 -750 0 -751
0 3 -687 4 -688 26 -98 c62 -226 160 -392 337 -567 210 -209 433 -328 753
-402 89 -21 123 -22 738 -27 l645 -6 -85 -27 c-411 -129 -862 -219 -1375 -275
-146 -15 -354 -17 -2360 -21 -1549 -2 -2228 0 -2295 8 -850 98 -1555 713
-1770 1544 -16 61 -37 158 -47 216 -17 99 -18 324 -20 4108 l-3 4002 247 0
c137 0 300 5 363 11 739 68 1358 554 1591 1250 80 240 99 388 99 789 l0 290
5225 0 5225 0 0 -2777z m-8476 -2921 c80 -37 143 -95 182 -164 27 -49 29 -61
29 -153 0 -89 -3 -106 -28 -157 -37 -76 -102 -140 -185 -180 -62 -31 -74 -33
-167 -33 -92 0 -106 3 -167 32 -82 39 -145 100 -184 179 -25 51 -29 70 -29
144 0 73 4 93 28 141 53 108 152 191 263 219 72 18 187 5 258 -28z m8776
-10447 l0 -65 -6675 0 -6675 0 0 65 0 65 6675 0 6675 0 0 -65z"/>
<path d="M7045 15359 c-186 -25 -413 -100 -560 -185 -281 -165 -496 -419 -590
-698 -53 -158 -57 -192 -62 -525 l-5 -314 24 5 c12 3 90 24 171 46 191 53 274
70 383 78 75 6 115 16 259 70 262 97 249 89 351 205 148 168 209 227 248 237
19 6 71 8 116 5 64 -5 80 -3 79 8 -1 35 -59 166 -88 201 -36 43 -151 275 -151
305 0 39 181 268 247 313 29 20 52 26 113 28 43 2 103 -1 136 -8 50 -11 65
-20 114 -69 69 -69 135 -194 156 -293 11 -52 13 -99 8 -178 -5 -88 -4 -116 11
-161 20 -61 66 -134 94 -149 11 -5 57 -9 103 -9 62 0 98 -5 143 -21 208 -77
228 -82 340 -87 121 -4 103 -8 515 97 113 28 207 54 209 56 8 8 -41 243 -69
326 -32 96 -96 228 -143 298 -45 66 -163 186 -232 235 -109 78 -236 132 -400
171 -62 15 -154 18 -760 20 -379 1 -721 -2 -760 -7z"/>
<path d="M9300 13943 c-63 -19 -189 -50 -279 -69 -190 -39 -207 -49 -217 -126
-4 -27 -13 -55 -20 -62 -7 -8 -63 -19 -131 -26 -147 -15 -176 -24 -208 -61
-26 -32 -29 -40 -98 -304 -25 -93 -61 -213 -81 -266 -20 -53 -36 -104 -36
-113 0 -15 54 -16 595 -16 l595 0 0 540 c0 297 -1 540 -2 539 -2 0 -55 -16
-118 -36z"/>
<path d="M7007 13540 c-30 -16 -87 -50 -125 -75 -82 -52 -111 -56 -178 -20
-26 14 -58 25 -72 25 -14 0 -73 -15 -131 -34 -169 -55 -270 -70 -483 -70
l-188 -1 0 -393 0 -393 23 12 c12 7 148 85 302 174 154 89 295 167 313 175 24
9 61 11 130 7 120 -7 144 2 255 97 82 69 111 79 170 57 13 -5 28 -6 33 -3 19
13 55 176 48 218 -5 34 -2 45 21 72 30 36 29 66 -2 144 -19 47 -40 49 -116 8z"/>
</g>
</svg>
